<svg width="32" height="32" viewBox="0 0 32 32" fill="none" xmlns="http://www.w3.org/2000/svg">
<path d="M15.6641 3.66797C9.03656 3.66797 3.66406 9.04047 3.66406 15.668C3.66406 22.2955 9.03656 27.668 15.6641 27.668C22.2916 27.668 27.6641 22.2955 27.6641 15.668C27.6641 9.04047 22.2916 3.66797 15.6641 3.66797ZM12.7266 20.6417H10.2966V12.8217H12.7266V20.6417ZM11.4966 11.8617C10.7291 11.8617 10.2328 11.318 10.2328 10.6455C10.2328 9.95922 10.7441 9.43172 11.5278 9.43172C12.3116 9.43172 12.7916 9.95922 12.8066 10.6455C12.8066 11.318 12.3116 11.8617 11.4966 11.8617ZM21.6016 20.6417H19.1716V16.308C19.1716 15.2992 18.8191 14.6142 17.9403 14.6142C17.2691 14.6142 16.8703 15.078 16.6941 15.5242C16.6291 15.683 16.6128 15.908 16.6128 16.1317V20.6405H14.1816V15.3155C14.1816 14.3392 14.1503 13.523 14.1178 12.8205H16.2291L16.3403 13.9067H16.3891C16.7091 13.3967 17.4928 12.6442 18.8041 12.6442C20.4028 12.6442 21.6016 13.7155 21.6016 16.018V20.6417Z" fill="#0743D7"/>
</svg>
