<svg width="32" height="32" viewBox="0 0 32 32" fill="none" xmlns="http://www.w3.org/2000/svg">
<g clip-path="url(#clip0_2103_7780)">
<path fill-rule="evenodd" clip-rule="evenodd" d="M7.48528 24.4853C2.79886 19.7989 2.79886 12.2011 7.48528 7.51472C12.1717 2.8283 19.7694 2.8283 24.4558 7.51472C29.1423 12.2011 29.1423 19.7989 24.4558 24.4853C19.7694 29.1717 12.1717 29.1717 7.48528 24.4853ZM10.8794 14.3029C10.3194 14.863 9.65921 15.8456 9.46066 17.059C9.25277 18.3462 9.58454 19.7963 10.8794 21.0912C12.1742 22.386 13.6235 22.7186 14.9108 22.5091C15.9521 22.3265 16.9135 21.8321 17.6676 21.0912C17.8927 20.8661 18.0191 20.5609 18.0191 20.2426C18.0191 19.9244 17.8927 19.6192 17.6676 19.3941C17.4426 19.1691 17.1374 19.0426 16.8191 19.0426C16.5008 19.0426 16.1956 19.1691 15.9706 19.3941C15.6821 19.6826 15.1373 20.0407 14.5264 20.1391C13.9901 20.2291 13.3181 20.1357 12.5765 19.3941C11.8348 18.6525 11.7432 17.9805 11.8314 17.4442C11.929 16.8341 12.288 16.2885 12.5765 16C12.8015 15.775 12.9279 15.4697 12.9279 15.1515C12.9279 14.8332 12.8015 14.528 12.5765 14.3029C12.3514 14.0779 12.0462 13.9515 11.7279 13.9515C11.4097 13.9515 11.1044 14.0779 10.8794 14.3029ZM14.2735 10.9088C14.0485 11.1339 13.922 11.4391 13.922 11.7574C13.922 12.0756 14.0485 12.3808 14.2735 12.6059C14.4986 12.8309 14.8038 12.9574 15.122 12.9574C15.4403 12.9574 15.7455 12.8309 15.9706 12.6059C16.2591 12.3174 16.8038 11.9593 17.4148 11.8609C17.951 11.7726 18.6231 11.8643 19.3647 12.6059C20.1063 13.3475 20.1979 14.0195 20.1097 14.5558C20.0113 15.1667 19.6532 15.7115 19.3647 16C19.2532 16.1114 19.1649 16.2437 19.1045 16.3893C19.0442 16.5349 19.0132 16.6909 19.0132 16.8485C19.0132 17.0061 19.0442 17.1622 19.1045 17.3077C19.1649 17.4533 19.2532 17.5856 19.3647 17.6971C19.4761 17.8085 19.6084 17.8969 19.754 17.9572C19.8996 18.0175 20.0556 18.0485 20.2132 18.0485C20.3708 18.0485 20.5268 18.0175 20.6724 17.9572C20.818 17.8969 20.9503 17.8085 21.0617 17.6971C21.6218 17.137 22.2819 16.1544 22.4796 14.9402C22.6884 13.6538 22.3566 12.2037 21.0617 10.9088C19.7669 9.61398 18.3176 9.28135 17.0295 9.49009C15.9884 9.67304 15.0273 10.1678 14.2735 10.9088ZM13.425 16.8485C13.1999 17.0736 13.0735 17.3788 13.0735 17.6971C13.0735 18.0153 13.1999 18.3205 13.425 18.5456C13.65 18.7706 13.9552 18.8971 14.2735 18.8971C14.5918 18.8971 14.897 18.7706 15.122 18.5456L18.5161 15.1515C18.7412 14.9264 18.8676 14.6212 18.8676 14.3029C18.8676 13.9847 18.7412 13.6795 18.5161 13.4544C18.2911 13.2294 17.9859 13.1029 17.6676 13.1029C17.3494 13.1029 17.0441 13.2294 16.8191 13.4544L13.425 16.8485Z" fill="#0743D7"/>
</g>
<defs>
<clipPath id="clip0_2103_7780">
<rect width="32" height="32" fill="white"/>
</clipPath>
</defs>
</svg>
