<svg width="32" height="32" viewBox="0 0 32 32" fill="none" xmlns="http://www.w3.org/2000/svg">
<path d="M16 4C9.37321 4 4 9.37321 4 16C4 22.6268 9.37321 28 16 28C22.6268 28 28 22.6268 28 16C28 9.37321 22.6268 4 16 4ZM21.767 13.0455C21.775 13.1714 21.775 13.3027 21.775 13.4313C21.775 17.3634 18.7804 21.8929 13.308 21.8929C11.6205 21.8929 10.0563 21.4027 8.73839 20.5589C8.97946 20.5857 9.20982 20.5964 9.45625 20.5964C10.8491 20.5964 12.1295 20.125 13.15 19.3268C11.8429 19.3 10.7446 18.4429 10.3696 17.2643C10.8277 17.3313 11.2402 17.3313 11.7116 17.2107C11.0386 17.074 10.4336 16.7084 9.99951 16.1762C9.56542 15.644 9.32898 14.9779 9.33036 14.2911V14.2536C9.72411 14.4759 10.1875 14.6125 10.6723 14.6313C10.2648 14.3596 9.93051 13.9916 9.69923 13.5599C9.46794 13.1282 9.34676 12.646 9.34643 12.1563C9.34643 11.6018 9.49107 11.0955 9.75089 10.6562C10.498 11.5759 11.4302 12.3281 12.487 12.8638C13.5437 13.3996 14.7015 13.707 15.8848 13.7661C15.4643 11.7438 16.975 10.1071 18.7911 10.1071C19.6482 10.1071 20.4196 10.4661 20.9634 11.0446C21.6357 10.9188 22.2786 10.667 22.8518 10.3295C22.6295 11.0179 22.1634 11.5991 21.5446 11.9661C22.1446 11.9018 22.7232 11.7357 23.2589 11.5027C22.8545 12.0973 22.3482 12.625 21.767 13.0455Z" fill="#0743D7"/>
</svg>
